<svg width="306" height="85" viewBox="0 0 306 85" fill="none" xmlns="http://www.w3.org/2000/svg">
<circle cx="35.5" cy="28.5" r="26.5" fill="#E11D48" stroke="white" stroke-width="4"/>
<ellipse cx="25.3848" cy="15.8579" rx="8" ry="5" transform="rotate(-37.8609 25.3848 15.8579)" fill="white"/>
<circle cx="68.5" cy="49.5" r="26.5" fill="#E11D48" stroke="white" stroke-width="4"/>
<ellipse cx="67" cy="35" rx="8" ry="5" fill="white"/>
<circle cx="28.5" cy="56.5" r="26.5" fill="#E11D48" stroke="white" stroke-width="4"/>
<ellipse cx="43.2668" cy="52.5551" rx="8" ry="5" transform="rotate(72.1175 43.2668 52.5551)" fill="white"/>
<path d="M111.464 56V32.16H121.512C123.005 32.16 124.296 32.4267 125.384 32.96C126.472 33.472 127.304 34.2187 127.88 35.2C128.456 36.16 128.744 37.3013 128.744 38.624C128.744 39.776 128.445 40.832 127.848 41.792C127.272 42.7307 126.365 43.4773 125.128 44.032V42.432C126.216 42.8587 127.101 43.4027 127.784 44.064C128.467 44.704 128.957 45.4293 129.256 46.24C129.576 47.0507 129.736 47.904 129.736 48.8C129.736 51.04 129 52.8 127.528 54.08C126.077 55.36 124.083 56 121.544 56H111.464ZM115.24 52.64H121.832C123.091 52.64 124.093 52.2987 124.84 51.616C125.587 50.912 125.96 49.984 125.96 48.832C125.96 47.6587 125.587 46.7307 124.84 46.048C124.093 45.344 123.091 44.992 121.832 44.992H115.24V52.64ZM115.24 41.664H121.608C122.632 41.664 123.453 41.376 124.072 40.8C124.691 40.2027 125 39.424 125 38.464C125 37.504 124.691 36.7573 124.072 36.224C123.453 35.6907 122.632 35.424 121.608 35.424H115.24V41.664ZM141.396 56.384C139.668 56.384 138.132 55.9893 136.788 55.2C135.466 54.3893 134.431 53.3013 133.684 51.936C132.938 50.5493 132.564 49.0027 132.564 47.296C132.564 45.5467 132.938 44 133.684 42.656C134.452 41.312 135.476 40.256 136.756 39.488C138.036 38.6987 139.487 38.304 141.108 38.304C142.41 38.304 143.572 38.528 144.596 38.976C145.62 39.424 146.484 40.0427 147.188 40.832C147.892 41.6 148.426 42.4853 148.788 43.488C149.172 44.4907 149.364 45.5573 149.364 46.688C149.364 46.9653 149.354 47.2533 149.332 47.552C149.311 47.8507 149.268 48.128 149.204 48.384H135.412V45.504H147.156L145.428 46.816C145.642 45.7707 145.567 44.8427 145.204 44.032C144.863 43.2 144.33 42.5493 143.604 42.08C142.9 41.5893 142.068 41.344 141.108 41.344C140.148 41.344 139.295 41.5893 138.548 42.08C137.802 42.5493 137.226 43.232 136.82 44.128C136.415 45.0027 136.255 46.0693 136.34 47.328C136.234 48.5013 136.394 49.5253 136.82 50.4C137.268 51.2747 137.887 51.9573 138.676 52.448C139.487 52.9387 140.404 53.184 141.428 53.184C142.474 53.184 143.359 52.9493 144.084 52.48C144.831 52.0107 145.418 51.4027 145.844 50.656L148.788 52.096C148.447 52.9067 147.914 53.6427 147.188 54.304C146.484 54.944 145.631 55.456 144.628 55.84C143.647 56.2027 142.57 56.384 141.396 56.384ZM152.893 56V38.688H156.349V42.176L156.029 41.664C156.413 40.5333 157.032 39.7227 157.885 39.232C158.739 38.72 159.763 38.464 160.957 38.464H162.013V41.76H160.509C159.315 41.76 158.344 42.1333 157.597 42.88C156.872 43.6053 156.509 44.6507 156.509 46.016V56H152.893ZM164.487 56V38.688H167.943V42.176L167.623 41.664C168.007 40.5333 168.626 39.7227 169.479 39.232C170.332 38.72 171.356 38.464 172.551 38.464H173.607V41.76H172.103C170.908 41.76 169.938 42.1333 169.191 42.88C168.466 43.6053 168.103 44.6507 168.103 46.016V56H164.487ZM177.617 63.072C177.19 63.072 176.763 63.0293 176.337 62.944C175.931 62.88 175.558 62.7733 175.217 62.624V59.52C175.473 59.584 175.782 59.6373 176.145 59.68C176.507 59.744 176.859 59.776 177.201 59.776C178.203 59.776 178.939 59.552 179.409 59.104C179.899 58.6773 180.337 58.0053 180.721 57.088L181.873 54.464L181.809 57.504L174.321 38.688H178.193L183.729 53.12H182.417L187.921 38.688H191.825L184.177 57.888C183.771 58.912 183.259 59.808 182.641 60.576C182.043 61.3653 181.329 61.9733 180.497 62.4C179.686 62.848 178.726 63.072 177.617 63.072ZM194.652 56V32.16H198.428V52.64H208.732V56H194.652ZM216.734 56.384C215.56 56.384 214.526 56.1813 213.63 55.776C212.755 55.3493 212.072 54.7733 211.582 54.048C211.091 53.3013 210.846 52.4267 210.846 51.424C210.846 50.4853 211.048 49.6427 211.454 48.896C211.88 48.1493 212.531 47.52 213.406 47.008C214.28 46.496 215.379 46.1333 216.702 45.92L222.718 44.928V47.776L217.406 48.704C216.446 48.8747 215.742 49.184 215.294 49.632C214.846 50.0587 214.622 50.6133 214.622 51.296C214.622 51.9573 214.867 52.5013 215.358 52.928C215.87 53.3333 216.52 53.536 217.31 53.536C218.291 53.536 219.144 53.3227 219.87 52.896C220.616 52.4693 221.192 51.904 221.598 51.2C222.003 50.4747 222.206 49.6747 222.206 48.8V44.352C222.206 43.4987 221.886 42.8053 221.246 42.272C220.627 41.7173 219.795 41.44 218.75 41.44C217.79 41.44 216.947 41.696 216.222 42.208C215.518 42.6987 214.995 43.3387 214.654 44.128L211.646 42.624C211.966 41.7707 212.488 41.024 213.214 40.384C213.939 39.7227 214.782 39.2107 215.742 38.848C216.723 38.4853 217.758 38.304 218.845 38.304C220.211 38.304 221.416 38.56 222.462 39.072C223.528 39.584 224.35 40.2987 224.926 41.216C225.523 42.112 225.822 43.1573 225.822 44.352V56H222.366V52.864L223.102 52.96C222.696 53.664 222.174 54.272 221.534 54.784C220.915 55.296 220.2 55.6907 219.39 55.968C218.6 56.2453 217.715 56.384 216.734 56.384ZM239.298 56.384C237.954 56.384 236.727 56.1067 235.618 55.552C234.53 54.9973 233.687 54.1973 233.09 53.152L233.506 52.48V56H230.049V31.776H233.666V42.272L233.09 41.44C233.73 40.4587 234.583 39.6907 235.65 39.136C236.716 38.5813 237.932 38.304 239.298 38.304C240.94 38.304 242.412 38.6987 243.714 39.488C245.036 40.2773 246.071 41.3547 246.818 42.72C247.586 44.0853 247.97 45.6213 247.97 47.328C247.97 49.0347 247.586 50.5707 246.818 51.936C246.071 53.3013 245.047 54.3893 243.746 55.2C242.444 55.9893 240.962 56.384 239.298 56.384ZM238.946 53.024C239.97 53.024 240.876 52.7787 241.666 52.288C242.455 51.7973 243.074 51.1253 243.522 50.272C243.991 49.3973 244.226 48.416 244.226 47.328C244.226 46.24 243.991 45.2693 243.522 44.416C243.074 43.5627 242.455 42.8907 241.666 42.4C240.876 41.9093 239.97 41.664 238.946 41.664C237.943 41.664 237.036 41.9093 236.226 42.4C235.436 42.8907 234.807 43.5627 234.338 44.416C233.89 45.2693 233.666 46.24 233.666 47.328C233.666 48.416 233.89 49.3973 234.338 50.272C234.807 51.1253 235.436 51.7973 236.226 52.288C237.036 52.7787 237.943 53.024 238.946 53.024ZM257.887 56.384C256.116 56.384 254.559 55.9467 253.215 55.072C251.892 54.1973 250.964 53.024 250.431 51.552L253.215 50.24C253.684 51.2213 254.324 52 255.135 52.576C255.967 53.152 256.884 53.44 257.887 53.44C258.74 53.44 259.434 53.248 259.967 52.864C260.5 52.48 260.767 51.9573 260.767 51.296C260.767 50.8693 260.65 50.528 260.415 50.272C260.18 49.9947 259.882 49.7707 259.519 49.6C259.178 49.4293 258.826 49.3013 258.463 49.216L255.743 48.448C254.25 48.0213 253.13 47.3813 252.383 46.528C251.658 45.6533 251.295 44.64 251.295 43.488C251.295 42.4427 251.562 41.536 252.095 40.768C252.628 39.9787 253.364 39.3707 254.303 38.944C255.242 38.5173 256.298 38.304 257.471 38.304C259.05 38.304 260.458 38.6987 261.695 39.488C262.932 40.256 263.807 41.3333 264.319 42.72L261.535 44.032C261.194 43.2 260.65 42.5387 259.903 42.048C259.178 41.5573 258.356 41.312 257.439 41.312C256.65 41.312 256.02 41.504 255.551 41.888C255.082 42.2507 254.847 42.7307 254.847 43.328C254.847 43.7333 254.954 44.0747 255.167 44.352C255.38 44.608 255.658 44.8213 255.999 44.992C256.34 45.1413 256.692 45.2693 257.055 45.376L259.871 46.208C261.3 46.6133 262.399 47.2533 263.167 48.128C263.935 48.9813 264.319 50.0053 264.319 51.2C264.319 52.224 264.042 53.1307 263.487 53.92C262.954 54.688 262.207 55.296 261.247 55.744C260.287 56.1707 259.167 56.384 257.887 56.384ZM269.462 56V51.84H273.142V56H269.462ZM278.956 56V38.688H282.572V56H278.956ZM278.956 36.32V32.16H282.572V36.32H278.956ZM295.152 56.384C293.488 56.384 291.962 55.9893 290.576 55.2C289.21 54.4107 288.122 53.3333 287.312 51.968C286.501 50.6027 286.096 49.056 286.096 47.328C286.096 45.5787 286.501 44.032 287.312 42.688C288.122 41.3227 289.21 40.256 290.576 39.488C291.941 38.6987 293.466 38.304 295.152 38.304C296.858 38.304 298.384 38.6987 299.728 39.488C301.093 40.256 302.17 41.3227 302.96 42.688C303.77 44.032 304.176 45.5787 304.176 47.328C304.176 49.0773 303.77 50.6347 302.96 52C302.149 53.3653 301.061 54.4427 299.696 55.232C298.33 56 296.816 56.384 295.152 56.384ZM295.152 53.024C296.176 53.024 297.082 52.7787 297.872 52.288C298.661 51.7973 299.28 51.1253 299.728 50.272C300.197 49.3973 300.432 48.416 300.432 47.328C300.432 46.24 300.197 45.2693 299.728 44.416C299.28 43.5627 298.661 42.8907 297.872 42.4C297.082 41.9093 296.176 41.664 295.152 41.664C294.149 41.664 293.242 41.9093 292.432 42.4C291.642 42.8907 291.013 43.5627 290.544 44.416C290.096 45.2693 289.872 46.24 289.872 47.328C289.872 48.416 290.096 49.3973 290.544 50.272C291.013 51.1253 291.642 51.7973 292.432 52.288C293.242 52.7787 294.149 53.024 295.152 53.024Z" fill="white"/>
</svg>
