<svg width="24" height="24" viewBox="0 0 24 24" fill="none" xmlns="http://www.w3.org/2000/svg">
<path d="M4.644 4.7998H20.544C22.044 4.7998 22.8 5.5078 22.8 6.9478V17.0518C22.8 18.4798 22.044 19.1998 20.544 19.1998H4.644C3.144 19.1998 2.388 18.4798 2.388 17.0518V6.9478C2.388 5.5078 3.144 4.7998 4.644 4.7998ZM12.588 15.1198L20.676 8.4838C20.964 8.2438 21.192 7.6918 20.832 7.1998C20.484 6.7078 19.848 6.6958 19.428 6.9958L12.588 11.6278L5.76 6.9958C5.34 6.6958 4.704 6.7078 4.356 7.1998C3.996 7.6918 4.224 8.2438 4.512 8.4838L12.588 15.1198Z" fill="#212121"/>
</svg>
