<svg width="203" height="205" viewBox="0 0 203 205" fill="none" xmlns="http://www.w3.org/2000/svg">
<g id="Screenshot_20 1">
<g id="#020202ff">
<g id="Vector">
<path d="M44.5854 13.2242C51.8589 10.8686 60.2111 16.3178 60.9752 23.8693C62.0464 30.7871 56.4432 37.7273 49.4544 38.2417C42.443 39.0691 35.499 33.18 35.4092 26.1131C34.9672 20.3657 39.0572 14.7822 44.5854 13.2242ZM45.8513 17.8982C43.1396 18.748 40.9673 21.1037 40.3905 23.8767C39.2594 28.4613 43.1546 33.4484 47.9113 33.4111C52.3233 33.7466 56.4582 29.7509 56.1586 25.3378C56.3159 20.2538 50.6604 16.1911 45.8513 17.8982Z" fill="white"/>
<path d="M144.887 13.1124C152.617 10.8387 161.202 17.3391 160.947 25.3677C161.359 33.2471 153.104 39.9562 145.419 38.0031C138.055 36.624 133.231 28.096 136.048 21.1335C137.448 17.2497 140.864 14.156 144.887 13.1124ZM144.834 18.256C142.587 19.2773 140.819 21.3869 140.332 23.8097C139.104 28.6029 143.329 33.7018 148.28 33.4186C153.127 33.5378 157.112 28.4837 155.951 23.8171C155.029 19.0537 149.254 16.0495 144.834 18.256Z" fill="white"/>
<path d="M81.9493 41.9913C82.4737 40.8955 83.2527 39.5537 84.691 39.7326C91.6574 39.6729 98.6238 39.6953 105.583 39.7177C107.388 39.4418 108.984 41.544 108.002 43.1542C104.287 50.728 100.429 58.2422 96.6612 65.7937C97.7174 68.112 97.9796 70.6987 97.0807 73.1215C97.8523 73.1215 99.3879 73.1215 100.159 73.1215C98.4515 68.6264 101.081 62.9535 105.995 62.1037C111.8 61.634 117.65 62.1857 123.463 61.8129C125.913 57.5191 128.467 53.2924 130.969 49.0358C133.276 45.0551 137.523 41.8646 142.288 41.9391C148.31 41.9466 154.34 41.9018 160.363 41.9615C164.28 41.9466 167.464 45.6589 167.516 49.4309C167.621 57.3253 167.584 65.2197 167.651 73.114C171.045 73.2631 174.745 72.5177 177.854 74.2471C181.24 75.9542 183.427 79.6815 183.285 83.4535C183.285 110.543 183.307 137.641 183.27 164.73C183.756 167.735 178.678 168.391 178.513 165.312C178.371 156.948 178.475 148.569 178.468 140.197C170.483 140.168 162.49 140.175 154.505 140.19C154.527 146.579 154.505 152.975 154.52 159.363C160.76 164.067 167.015 168.756 173.254 173.467C174.206 174.116 175.135 175.457 174.445 176.605C173.914 178.119 171.809 178.596 170.625 177.545C164.415 172.908 158.228 168.249 152.063 163.553C145.891 168.256 139.696 172.938 133.471 177.56C131.396 179.498 127.995 176.21 130.085 174.175C136.475 169.099 143.112 164.328 149.599 159.371C149.621 152.982 149.576 146.601 149.628 140.212C147.351 140.093 145.067 140.063 142.789 140.205C142.025 145.654 135.793 149.396 130.654 147.153C127.508 146.012 125.95 142.874 124.347 140.19C108.19 140.302 92.0169 139.959 75.8668 140.25C75.0354 143.246 73.4024 146.333 70.2937 147.473C65.0501 149.762 58.3983 145.878 57.8665 140.183C53.6267 140.13 49.3869 140.205 45.1472 140.183C45.1771 146.579 45.1472 152.967 45.1621 159.363C51.4094 164.067 57.6642 168.763 63.9116 173.475C64.8704 174.131 65.7917 175.48 65.0726 176.628C64.5333 178.111 62.4658 178.581 61.2898 177.552C55.0724 172.923 48.8776 168.256 42.7127 163.56C36.3755 168.331 30.0982 173.206 23.6561 177.835C21.5063 179.2 18.8171 175.897 20.7422 174.153C27.1393 169.099 33.7612 164.32 40.2407 159.378C40.2632 152.982 40.2107 146.593 40.2707 140.205C32.2855 140.153 24.3003 140.168 16.3077 140.19C16.2927 148.375 16.3376 156.568 16.2927 164.753C16.6223 166.862 13.7159 168.338 12.2477 166.721C11.3563 166.139 11.5435 164.939 11.4686 164.045C11.4836 137.193 11.4686 110.342 11.4761 83.4908C11.2139 78.526 15.1915 73.77 20.1579 73.2184C23.2366 72.9798 26.3303 73.1662 29.409 73.114C29.4465 66.8969 29.3791 60.6798 29.439 54.4702C29.4615 48.9091 33.6413 43.758 39.0197 42.3715C42.6752 41.5515 46.4655 42.0882 50.1735 41.9391C55.1473 41.9764 61.7168 41.0744 64.6981 46.0913C67.5221 50.5715 70.2712 55.1113 73.1327 59.5766C76.0766 53.7173 79.0204 47.858 81.9493 41.9913ZM86.1517 44.5184C83.2378 50.3255 80.3089 56.1251 77.4024 61.9322C82.5636 62.1484 87.8146 61.4104 92.9158 62.4466C95.9196 56.468 98.9085 50.4895 101.927 44.5184C96.6687 44.5035 91.4102 44.5109 86.1517 44.5184ZM34.2481 55.1933C34.2631 65.8757 34.2256 76.558 34.2706 87.2404C34.4953 91.6162 34.8848 96.0964 36.5627 100.204C41.3119 100.249 46.0685 100.077 50.8177 100.278C56.4957 100.987 59.5294 106.354 63.507 109.783C65.9715 112.601 70.2487 115.031 69.7693 119.31C67.7618 125.855 64.9902 132.161 62.8853 138.677C61.7392 142.68 68.421 145.155 70.1888 141.398C73.5072 132.981 76.4361 124.409 79.6197 115.94C80.8032 113.488 79.1103 111.028 77.5747 109.201C72.7507 103.581 66.5858 99.2646 61.8591 93.5618C60.0688 91.3553 58.5332 88.694 58.638 85.7718C58.6455 80.0467 58.5856 74.3142 58.6605 68.5966C58.5556 67.128 60.0913 65.9651 61.477 66.2037C64.9902 67.9853 67.5071 71.3249 71.0128 73.0618C77.32 73.1215 83.6497 73.2184 89.957 73.0097C93.2229 72.8904 93.7698 67.7915 90.6536 66.9044C84.7434 66.4795 78.7882 66.9342 72.863 66.6957C71.7169 66.6882 71.1401 65.5402 70.5709 64.7351C67.2225 59.3753 63.9265 53.9782 60.5407 48.6408C59.5369 46.8368 57.1998 46.8442 55.3945 46.7547C50.9225 46.7547 46.4431 46.6951 41.9786 46.7846C37.6639 46.9113 34.0234 50.9144 34.2481 55.1933ZM135.126 51.548C132.527 55.9388 129.943 60.3369 127.351 64.7277C126.804 65.5551 126.197 66.6807 125.051 66.6882C119.328 66.8522 113.59 66.6584 107.86 66.7553C105.515 66.5317 103.62 69.3942 104.901 71.4069C105.568 72.786 107.201 73.1364 108.602 73.1066C116.002 73.1289 123.403 73.0991 130.804 73.114C130.879 70.3558 130.684 67.5977 130.917 64.8469C132.085 62.1484 135.561 63.4306 137.846 63.1398C140.168 63.4827 143.351 62.1931 144.992 64.3624C145.771 67.2324 145.231 70.3037 145.284 73.2482C146.924 72.8978 148.707 72.9128 150.265 72.2791C150.475 68.5593 150.123 64.8246 150.415 61.1122C151.089 58.8758 154.512 58.9206 155.119 61.1718C155.351 64.8917 155.187 68.6338 155.209 72.3611C155.344 74.4931 153.823 76.5729 151.726 77.05C145.366 78.3248 138.879 78.9957 132.542 80.3747C130.07 82.1117 131.86 86.4129 134.812 85.9433C143.104 84.9369 151.321 83.4386 159.531 81.9626C161.629 81.7389 162.85 79.4355 162.857 77.5197C162.79 68.3058 162.797 59.0995 162.685 49.8857C162.737 48.2382 161.404 46.4566 159.599 46.7547C153.823 46.7473 148.048 46.7249 142.273 46.7622C139.171 46.7622 136.61 49.0135 135.126 51.548ZM135.711 68.0449C135.726 70.1993 135.726 72.3611 135.726 74.5229C137.299 74.3142 138.872 74.1129 140.445 73.9117C140.452 71.9511 140.452 69.9831 140.452 68.0151C138.864 68.03 137.291 68.0375 135.711 68.0449ZM16.3227 83.4833C16.2852 100.755 16.3227 118.028 16.3002 135.292C24.3003 135.285 32.293 135.33 40.2931 135.27C40.1958 129.873 40.2632 124.476 40.2482 119.086C36.338 119.041 32.4203 119.146 28.5027 119.049C25.1917 119.056 22.4576 115.829 22.7722 112.593C22.8771 109.798 22.4426 106.92 23.1018 104.177C24.2779 100.823 28.0982 99.7193 31.3417 100.159C29.0794 92.9655 29.4165 85.3618 29.4315 77.9222C26.6075 77.9744 23.7835 77.8178 20.9669 77.9893C18.2777 78.2204 16.1878 80.8369 16.3227 83.4833ZM63.4546 77.9222C63.522 80.7997 63.3497 83.6846 63.5295 86.5546C64.1438 89.2531 66.2562 91.2584 68.0839 93.2115C72.7956 98.042 78.3613 102.075 82.3988 107.532C84.3389 110.193 85.7621 113.719 84.4138 116.962C82.1741 123.074 79.9718 129.202 77.6646 135.285C92.2492 135.292 106.841 135.322 121.426 135.27C118.931 131.364 116.542 127.383 114.152 123.402C112.19 120.13 112.032 116 113.418 112.489C111.912 110.431 109.867 108.538 109.455 105.914C108.804 102.887 110.175 99.6298 112.662 97.8258C117.531 94.0389 122.444 90.3042 127.321 86.5247C126.092 83.7069 126.28 80.4195 128.13 77.9073C106.572 77.952 85.0131 77.9147 63.4546 77.9222ZM167.816 77.9446C167.561 80.9189 166.011 83.5429 163.824 85.5258C163.359 88.4033 165.104 92.3691 162.235 94.3371C159.793 96.3126 157.314 98.2507 154.835 100.181C158.64 100.249 162.453 100.122 166.258 100.226C169.194 100.271 171.884 102.865 171.951 105.802C172.033 108.307 172.026 110.819 171.966 113.324C171.973 116.313 169.284 119.034 166.28 119.049C162.355 119.146 158.43 119.041 154.512 119.079C154.497 124.476 154.565 129.873 154.468 135.27C162.468 135.33 170.46 135.285 178.46 135.292C178.431 118.02 178.475 100.748 178.438 83.4758C178.543 81.0755 176.88 78.772 174.565 78.1011C172.333 77.7582 170.063 77.9595 167.816 77.9446ZM146.707 89.3724C137.808 96.648 129.051 104.103 120.205 111.453C117.388 113.6 116.429 117.819 118.325 120.875C122.212 127.413 126.227 133.876 130.145 140.391C130.917 141.823 132.302 143.097 134.055 142.918C136.954 143.015 139.014 139.4 137.359 136.999C134.407 131.953 131.269 127.025 128.287 122.008C126.699 119.541 127.186 115.94 129.576 114.151C139.366 106.324 149.164 98.5117 158.992 90.7366C158.992 89.4768 158.992 88.2169 158.999 86.9571C154.932 87.8889 150.67 88.1275 146.707 89.3724ZM116.886 100.666C115.71 101.643 114.1 102.619 114.167 104.356C114.152 105.974 115.508 107.114 116.31 108.381C123.418 102.403 130.587 96.484 137.688 90.4906C135.396 90.7962 132.999 91.0348 130.849 89.9688C126.167 93.4948 121.561 97.1326 116.886 100.666ZM27.6187 106.54C27.5738 108.814 27.5289 111.102 27.6637 113.376C28.1806 114.613 29.6113 114.189 30.66 114.285C39.4242 114.203 48.1959 114.375 56.9526 114.203C58.1736 113.577 57.6942 112.094 57.859 111.013C55.2447 108.851 53.3196 105.131 49.5293 105.042C42.9898 104.952 36.4504 105.034 29.9109 104.997C28.9296 104.833 27.3715 105.236 27.6187 106.54ZM137.359 114.196C146.52 114.367 155.689 114.218 164.85 114.278C165.906 114.487 167.404 113.972 167.149 112.638C167.187 110.364 167.239 108.083 167.089 105.817C166.88 105.631 166.453 105.265 166.243 105.079C160.475 104.878 154.707 105.094 148.939 104.975C145.037 107.994 141.179 111.073 137.359 114.196ZM57.462 118.997C53.3645 119.198 49.2596 119.027 45.1696 119.071C45.1322 124.476 45.2071 129.873 45.1172 135.277C49.724 135.292 54.3383 135.352 58.9452 135.24C60.8928 129.612 62.9902 124.036 65.0651 118.453C64.1812 117.394 63.2449 116.38 62.2935 115.389C61.2074 117.126 59.6568 118.863 57.462 118.997ZM132.13 118.572C135.044 124.334 138.827 129.672 142.025 135.3C144.565 135.3 147.104 135.307 149.651 135.27C149.561 129.873 149.621 124.476 149.606 119.079C145.688 119.049 141.771 119.146 137.853 119.049C136.115 119.123 134.729 117.983 133.366 117.081C133.059 117.454 132.437 118.199 132.13 118.572Z" fill="white"/>
</g>
</g>
</g>
</svg>
