<svg width="24" height="24" viewBox="0 0 24 24" fill="none" xmlns="http://www.w3.org/2000/svg">
<g clip-path="url(#clip0_2412_97)">
<path d="M12.0037 7.95732C9.73225 7.95732 7.90011 9.76084 7.90011 11.9968C7.90011 14.2327 9.73225 16.0362 12.0037 16.0362C14.2751 16.0362 16.1073 14.2327 16.1073 11.9968C16.1073 9.76084 14.2751 7.95732 12.0037 7.95732ZM12.0037 14.6229C10.5358 14.6229 9.33583 13.4452 9.33583 11.9968C9.33583 10.5483 10.5323 9.3706 12.0037 9.3706C13.4751 9.3706 14.6715 10.5483 14.6715 11.9968C14.6715 13.4452 13.4715 14.6229 12.0037 14.6229ZM17.2322 7.79209C17.2322 8.31592 16.8037 8.73428 16.2751 8.73428C15.743 8.73428 15.318 8.3124 15.318 7.79209C15.318 7.27178 15.7465 6.8499 16.2751 6.8499C16.8037 6.8499 17.2322 7.27178 17.2322 7.79209ZM19.9501 8.74834C19.8894 7.48623 19.5965 6.36826 18.6572 5.44717C17.7215 4.52607 16.5858 4.23779 15.3037 4.17451C13.9823 4.10068 10.0215 4.10068 8.70011 4.17451C7.42154 4.23428 6.28583 4.52256 5.34654 5.44365C4.40726 6.36474 4.11797 7.48271 4.05369 8.74482C3.97869 10.0456 3.97869 13.9444 4.05369 15.2452C4.1144 16.5073 4.40726 17.6253 5.34654 18.5464C6.28583 19.4675 7.41797 19.7558 8.70011 19.819C10.0215 19.8929 13.9823 19.8929 15.3037 19.819C16.5858 19.7593 17.7215 19.471 18.6572 18.5464C19.593 17.6253 19.8858 16.5073 19.9501 15.2452C20.0251 13.9444 20.0251 10.0491 19.9501 8.74834ZM18.243 16.6409C17.9644 17.33 17.4251 17.8608 16.7215 18.1386C15.668 18.5499 13.168 18.455 12.0037 18.455C10.8394 18.455 8.33583 18.5464 7.28583 18.1386C6.58583 17.8643 6.04654 17.3335 5.7644 16.6409C5.34654 15.6038 5.44297 13.1429 5.44297 11.9968C5.44297 10.8507 5.35011 8.38623 5.7644 7.35263C6.04297 6.66357 6.58226 6.13271 7.28583 5.85498C8.3394 5.44365 10.8394 5.53857 12.0037 5.53857C13.168 5.53857 15.6715 5.44717 16.7215 5.85498C17.4215 6.1292 17.9608 6.66006 18.243 7.35263C18.6608 8.38974 18.5644 10.8507 18.5644 11.9968C18.5644 13.1429 18.6608 15.6073 18.243 16.6409Z" fill="#212121"/>
</g>
<defs>
<clipPath id="clip0_2412_97">
<rect width="16" height="18" fill="white" transform="translate(4.00012 3)"/>
</clipPath>
</defs>
</svg>
