<svg width="24" height="24" viewBox="0 0 24 24" fill="none" xmlns="http://www.w3.org/2000/svg">
<g clip-path="url(#clip0_2412_91)">
<path d="M11.1359 21.525C9.23281 19.1426 5 13.3684 5 10.125C5 6.18992 8.13396 3 12 3C15.8646 3 19 6.18992 19 10.125C19 13.3684 14.7344 19.1426 12.8641 21.525C12.4156 22.0928 11.5844 22.0928 11.1359 21.525ZM12 12.5C13.287 12.5 14.3333 11.435 14.3333 10.125C14.3333 8.81504 13.287 7.75 12 7.75C10.713 7.75 9.66667 8.81504 9.66667 10.125C9.66667 11.435 10.713 12.5 12 12.5Z" fill="#212121"/>
</g>
<defs>
<clipPath id="clip0_2412_91">
<rect width="14" height="19" fill="white" transform="translate(5 3)"/>
</clipPath>
</defs>
</svg>
