<svg width="24" height="24" viewBox="0 0 24 24" fill="none" xmlns="http://www.w3.org/2000/svg">
<g clip-path="url(#clip0_2412_105)">
<path d="M20.9998 6.70441C20.3258 6.98888 19.6109 7.17561 18.8788 7.25838C19.6413 6.82297 20.2268 6.13349 20.5025 5.31198C19.7776 5.72179 18.9846 6.01052 18.1575 6.16571C17.4839 5.48199 16.5242 5.05469 15.462 5.05469C13.4225 5.05469 11.7689 6.62992 11.7689 8.57277C11.7689 8.84855 11.8016 9.11703 11.8646 9.37459C8.79543 9.22782 6.07433 7.82722 4.25289 5.69869C3.93507 6.21829 3.75296 6.82271 3.75296 7.46738C3.75296 8.68799 4.40497 9.76478 5.39582 10.3957C4.80937 10.3782 4.23583 10.2273 3.72308 9.95562C3.72287 9.97036 3.72287 9.9851 3.72287 9.9999C3.72287 11.7045 4.99581 13.1265 6.68514 13.4497C6.14133 13.5906 5.57091 13.6112 5.01746 13.5099C5.48736 14.9077 6.85121 15.9248 8.46714 15.9532C7.20327 16.8968 5.6109 17.4593 3.88079 17.4593C3.58267 17.4593 3.28876 17.4426 2.99985 17.4101C4.63412 18.4083 6.57524 18.9908 8.66071 18.9908C15.4534 18.9908 19.1678 13.6299 19.1678 8.98078C19.1678 8.82819 19.1643 8.67647 19.1571 8.52561C19.8801 8.0277 20.5041 7.41098 20.9998 6.70441Z" fill="#212121"/>
</g>
<defs>
<clipPath id="clip0_2412_105">
<rect width="18" height="14" fill="white" transform="translate(2.99985 5)"/>
</clipPath>
</defs>
</svg>
